<svg version="1.1" id="Layer_1" xmlns="http://www.w3.org/2000/svg" xmlns:xlink="http://www.w3.org/1999/xlink" x="0px" y="0px"
	 width="100%" viewBox="0 0 500 500" enable-background="new 0 0 500 500" xml:space="preserve">

<path fill="#196F65" opacity="1.000000" stroke="none" 
	d="
M161.034882,474.959656 
	C127.506279,461.374023 98.441231,441.835571 74.210648,415.458557 
	C41.691357,380.058563 20.623722,338.780518 13.016689,291.175018 
	C1.601598,219.738266 18.250282,155.122345 63.447178,98.742531 
	C100.689339,52.285675 149.544678,23.770039 208.144577,13.261861 
	C271.401276,1.918623 330.502716,14.173912 384.066101,49.584942 
	C438.639557,85.663773 472.983582,136.428192 486.802216,200.330795 
	C498.813782,255.876740 491.806885,309.531372 465.999634,360.255402 
	C443.870850,403.749390 411.399109,437.675079 368.696442,461.582611 
	C326.620148,485.139404 281.350037,494.721558 233.420593,491.706604 
	C208.569763,490.143341 184.529846,484.420685 161.034882,474.959656 
M338.038940,168.665543 
	C310.806885,170.680695 283.569275,172.624130 256.345428,174.744675 
	C244.713150,175.650742 240.652695,180.328491 240.652023,192.114166 
	C240.649078,244.274155 240.654175,296.434143 240.646591,348.594116 
	C240.645416,356.648224 239.194168,358.291931 231.497238,359.132172 
	C219.403580,360.452393 209.874298,368.122986 206.569382,379.197815 
	C203.294754,390.171021 207.084290,402.165253 216.070816,409.270813 
	C225.113266,416.420593 237.474823,417.516327 247.462234,411.683044 
	C257.041901,406.087921 261.667450,397.498169 261.667419,386.412109 
	C261.667236,332.918945 261.642975,279.425781 261.680878,225.932678 
	C261.693939,207.527557 271.726685,196.796616 289.868683,194.876801 
	C308.242950,192.932419 326.570404,190.546036 344.918976,188.358444 
	C351.365662,187.589844 357.799591,186.668198 364.264618,186.108444 
	C382.487885,184.530670 395.506195,197.412872 395.618042,217.308075 
	C395.753845,241.470886 395.651825,265.635040 395.649689,289.798615 
	C395.649353,293.798004 395.802216,297.806610 395.583954,301.794525 
	C395.285248,307.251831 392.833405,309.583984 387.493256,309.964172 
	C371.217834,311.122925 359.765106,323.495209 360.354767,339.281586 
	C360.923157,354.498169 373.544586,366.179321 388.926483,366.159546 
	C403.017242,366.141418 416.577454,353.106201 416.439545,337.123352 
	C415.989563,284.967255 416.277924,232.804840 416.266083,180.644852 
	C416.263275,168.305801 411.139557,163.273956 398.736145,164.085938 
	C378.799347,165.391068 358.883820,167.021271 338.038940,168.665543 
M256.091309,114.548363 
	C268.206268,112.349014 280.332062,110.206085 292.422729,107.880508 
	C293.973938,107.582130 296.551727,106.402817 296.602051,105.515251 
	C296.963898,99.133133 296.795715,92.720970 296.795715,86.580864 
	C295.862335,86.300522 295.693604,86.191200 295.544373,86.213310 
	C242.691742,94.041985 189.834229,101.838074 136.993591,109.746933 
	C124.080399,111.679688 120.830185,115.665527 120.830078,128.542694 
	C120.829651,181.208572 120.835686,233.874466 120.821526,286.540344 
	C120.819702,293.333557 118.699348,295.561951 112.066635,295.964233 
	C100.219673,296.682800 89.855148,304.949554 86.800377,316.116577 
	C83.567924,327.933136 87.877808,340.015717 97.830147,347.038055 
	C107.473450,353.842346 120.500488,353.807465 130.114471,346.907410 
	C139.409851,340.235992 142.166290,330.793091 142.141571,319.821899 
	C142.020966,266.322968 142.075241,212.823624 142.095520,159.324417 
	C142.100845,145.269104 150.826935,133.827530 164.395920,131.256683 
	C194.638840,125.526749 224.962906,120.225090 256.091309,114.548363 
z"/>
<path fill="#FCFDFD" opacity="1.000000" stroke="none" 
	d="
M338.499146,168.589844 
	C358.883820,167.021271 378.799347,165.391068 398.736145,164.085938 
	C411.139557,163.273956 416.263275,168.305801 416.266083,180.644852 
	C416.277924,232.804840 415.989563,284.967255 416.439545,337.123352 
	C416.577454,353.106201 403.017242,366.141418 388.926483,366.159546 
	C373.544586,366.179321 360.923157,354.498169 360.354767,339.281586 
	C359.765106,323.495209 371.217834,311.122925 387.493256,309.964172 
	C392.833405,309.583984 395.285248,307.251831 395.583954,301.794525 
	C395.802216,297.806610 395.649353,293.798004 395.649689,289.798615 
	C395.651825,265.635040 395.753845,241.470886 395.618042,217.308075 
	C395.506195,197.412872 382.487885,184.530670 364.264618,186.108444 
	C357.799591,186.668198 351.365662,187.589844 344.918976,188.358444 
	C326.570404,190.546036 308.242950,192.932419 289.868683,194.876801 
	C271.726685,196.796616 261.693939,207.527557 261.680878,225.932678 
	C261.642975,279.425781 261.667236,332.918945 261.667419,386.412109 
	C261.667450,397.498169 257.041901,406.087921 247.462234,411.683044 
	C237.474823,417.516327 225.113266,416.420593 216.070816,409.270813 
	C207.084290,402.165253 203.294754,390.171021 206.569382,379.197815 
	C209.874298,368.122986 219.403580,360.452393 231.497238,359.132172 
	C239.194168,358.291931 240.645416,356.648224 240.646591,348.594116 
	C240.654175,296.434143 240.649078,244.274155 240.652023,192.114166 
	C240.652695,180.328491 244.713150,175.650742 256.345428,174.744675 
	C283.569275,172.624130 310.806885,170.680695 338.499146,168.589844 
z"/>
<path fill="#FCFDFD" opacity="1.000000" stroke="none" 
	d="
M255.672607,114.648636 
	C224.962906,120.225090 194.638840,125.526749 164.395920,131.256683 
	C150.826935,133.827530 142.100845,145.269104 142.095520,159.324417 
	C142.075241,212.823624 142.020966,266.322968 142.141571,319.821899 
	C142.166290,330.793091 139.409851,340.235992 130.114471,346.907410 
	C120.500488,353.807465 107.473450,353.842346 97.830147,347.038055 
	C87.877808,340.015717 83.567924,327.933136 86.800377,316.116577 
	C89.855148,304.949554 100.219673,296.682800 112.066635,295.964233 
	C118.699348,295.561951 120.819702,293.333557 120.821526,286.540344 
	C120.835686,233.874466 120.829651,181.208572 120.830078,128.542694 
	C120.830185,115.665527 124.080399,111.679688 136.993591,109.746933 
	C189.834229,101.838074 242.691742,94.041985 295.544373,86.213310 
	C295.693604,86.191200 295.862335,86.300522 296.795715,86.580864 
	C296.795715,92.720970 296.963898,99.133133 296.602051,105.515251 
	C296.551727,106.402817 293.973938,107.582130 292.422729,107.880508 
	C280.332062,110.206085 268.206268,112.349014 255.672607,114.648636 
z"/>
</svg>